<svg id="SvgjsSvg1001" width="288" height="288" xmlns="http://www.w3.org/2000/svg" version="1.1" xmlns:xlink="http://www.w3.org/1999/xlink" xmlns:svgjs="http://svgjs.com/svgjs"><defs id="SvgjsDefs1002"></defs><g id="SvgjsG1008"><svg xmlns="http://www.w3.org/2000/svg" width="288" height="288" enable-background="new 0 0 512 512" viewBox="0 0 512 512"><path d="M351.994,480h-80V318.469c34.938-3.562,67.656-17.906,93.219-42.594c60.313-58.297,64.375-207.5,7.375-270.594L367.807,0
		H144.15l-4.766,5.281c-56.984,63.094-52.89,212.312,7.423,270.594c25.531,24.688,58.25,39.031,93.188,42.594V480h-80
		c-8.844,0-16,7.156-16,16s7.156,16,16,16h80h32h80c8.844,0,16-7.156,16-16S360.838,480,351.994,480z M158.76,32h194.453
		c41.063,53.766,36.406,175.797-10.25,220.859c-46.844,45.266-127.047,45.329-173.906,0.016C122.4,207.797,117.697,85.766,158.76,32
		z M180.182,241.375c-23.313-22.531-34.594-68.828-33.313-113.375h218.25c1.312,44.563-9.969,90.844-33.281,113.359
		C293.119,278.812,218.916,278.812,180.182,241.375z" fill="#ca9b43" class="color000 svgShape"></path></svg></g></svg>